<?xml version="1.0" encoding="utf-8"?>
<!-- Generator: Adobe Illustrator 24.1.1, SVG Export Plug-In . SVG Version: 6.00 Build 0)  -->
<svg version="1.1" id="Layer_1" xmlns="http://www.w3.org/2000/svg" xmlns:xlink="http://www.w3.org/1999/xlink" x="0px" y="0px"
	 viewBox="0 0 223 80" style="enable-background:new 0 0 223 80;" xml:space="preserve">
<style type="text/css">
	.st0{fill:#FFFFFF;}
</style>
<g>
	<g>
		<path class="st0" d="M0.1,65.1c0-5.4,2.8-9.2,7.5-12c-2.1-1.5-3.4-3.6-3.4-6.5c0-4.4,2.9-7.7,6.5-10.3c-5-3.8-7.5-9.6-7.5-15.9
			C3.2,9.2,10.9,0,26.1,0c3.4,0,6.6,0.5,9.3,1.3h21.1v10.8l-9.3-0.5c1.1,2.7,1.8,5.6,1.8,8.7c0,11.1-7.7,20.3-22.9,20.3
			c-3.4,0-6.4-0.4-8.9-1.2c-0.6,0.6-1,1.3-1,2.1c0,7.8,37.5-1.6,37.5,20.3C53.6,70.4,48,80,25.6,80C6.6,80,0.1,73.1,0.1,65.1z
			 M40,62.7c0-6.4-14-5.1-24.5-7c-2.1,1.8-3.4,4.2-3.4,6.7c0,5.4,6.1,7.3,14,7.3C39.3,69.8,40,64.2,40,62.7z M16,20.3
			c0,8.3,5.4,10.8,10,10.8s10-2.3,10-10.8c0-8.3-5.4-10.7-10-10.7S16,12,16,20.3z"/>
		<path class="st0" d="M61.6,43.5h8.1V12.1h-8.1V1.3H83V11c2.7-5,8-11,17.5-11h1.1v14h-2.2c-7.8,0-13,1.6-15.9,3.4v26.1h9.2v10.8
			H61.6V43.5z"/>
		<path class="st0" d="M106.4,27.8c0-16,9.2-27.8,26-27.8c16.7,0,24.3,11.8,24.3,26.3c0,1.8-0.1,3.9-0.5,5.9h-35.8
			c1.3,8.3,6.4,12.9,15.9,12.9c7.2,0,12.9-2.7,17-4.9v10.7c-4.2,2.3-10.5,4.8-19.1,4.8C115.6,55.6,106.4,43.9,106.4,27.8z
			 M120.3,22.5h23.4c-0.5-6.2-2.9-12.5-11-12.5C124.7,10,121.2,15.9,120.3,22.5z"/>
		<path class="st0" d="M162.1,67.7h8.1V12.1h-8.1V1.3h20.9v5.8c3.7-3.9,8.6-7.1,16.3-7.1c14.3,0,23.5,10.9,23.5,27.4
			c0,17-9.7,28.2-24.9,28.2c-5.8,0-10.3-1.6-14-4.2v16.3h9.7v10.9h-31.6V67.7z M184.1,15.1v26.7c2.6,2.1,5.9,3.3,10.3,3.3
			c9.7,0,14.3-6.7,14.3-17.2c0-9.3-3.8-17.4-13.4-17.4C190.6,10.5,186.9,12.5,184.1,15.1z"/>
	</g>
</g>
</svg>
