<?xml version="1.0" encoding="utf-8"?>
<!-- Generator: Adobe Illustrator 24.1.1, SVG Export Plug-In . SVG Version: 6.00 Build 0)  -->
<svg version="1.1" id="Layer_1" xmlns="http://www.w3.org/2000/svg" xmlns:xlink="http://www.w3.org/1999/xlink" x="0px" y="0px"
	 viewBox="0 0 500 440" style="enable-background:new 0 0 500 440;" xml:space="preserve">
<style type="text/css">
	.st0{fill:#30C7B5;}
	.st1{opacity:0.7;fill:#FFFFFF;enable-background:new    ;}
	.st2{fill:none;stroke:#263238;stroke-miterlimit:10;}
	.st3{fill:#30C7B5;stroke:#263238;stroke-miterlimit:10;}
	.st4{fill:#FFFFFF;stroke:#263238;stroke-miterlimit:10;}
	.st5{fill:#263238;stroke:#263238;stroke-miterlimit:10;}
	.st6{fill:none;stroke:#263238;stroke-width:2;stroke-miterlimit:10;}
	.st7{fill:#263238;stroke:#263238;stroke-linecap:round;stroke-linejoin:round;}
	.st8{fill:#263238;}
	.st9{fill:#30C7B5;stroke:#263238;stroke-linecap:round;stroke-linejoin:round;}
	.st10{fill:#BDBDBD;stroke:#263238;stroke-miterlimit:10;}
	.st11{fill:#FFFFFF;stroke:#263238;stroke-linecap:round;stroke-linejoin:round;}
	.st12{fill:none;stroke:#263238;stroke-width:2;stroke-linecap:round;stroke-linejoin:round;}
	.st13{fill:none;stroke:#FFFFFF;stroke-linecap:round;stroke-linejoin:round;}
	.st14{fill:none;stroke:#878787;stroke-linecap:round;stroke-linejoin:round;}
</style>
<g>
	<g id="freepik--background-simple--inject-193">
		<path class="st0" d="M472.9,259.3c-14.7,39.4-44.8,82.1-87.1,94.7c-64,19.1-71.6,70.7-186.2,65.9c-16.7-0.6-33.3-3.1-49.5-7.3
			c-7.9-2.1-15.7-4.7-23.3-7.8C59.9,377.8,25,318.1,22.1,255.7c-3.8-82.1,53.5-121.2,90.7-144.1S194.8-0.2,307.5,3.7
			c17.2,0.5,34.3,3,50.9,7.4c37.9,10.3,76.4,33,98.8,66.1c1.7,2.5,3.3,5,4.8,7.6C492,135.7,493,205.5,472.9,259.3z"/>
		<path class="st1" d="M472.9,259.3c-14.7,39.4-44.8,82.1-87.1,94.7c-64,19.1-71.6,70.7-186.2,65.9c-16.7-0.6-33.3-3.1-49.5-7.3
			c-7.9-2.1-15.7-4.7-23.3-7.8C59.9,377.8,25,318.1,22.1,255.7c-3.8-82.1,53.5-121.2,90.7-144.1S194.8-0.2,307.5,3.7
			c17.2,0.5,34.3,3,50.9,7.4c37.9,10.3,76.4,33,98.8,66.1c1.7,2.5,3.3,5,4.8,7.6C492,135.7,493,205.5,472.9,259.3z"/>
	</g>
	<g id="freepik--Puzzle--inject-193">
		<path class="st2" d="M252.5,294.9c-11.6-26.4-9.9-69.6-4.5-73.2c5.9-3.9,15.3,16.3,24.7,10.4s15.8-18.8,7.9-39.1s-18.3-6.9-25.7-2
			c-7.4,4.9-13.4,0.5-11.9-17.3c1.1-13.1,6.2-37.3,8.8-49c1.2,0.5,2.4,1,3.5,1.6c-23.2-10.9-48.9-14.3-59.8-10.9s-8.9,4.4-3.5,17.3
			c11.4,26.8-31.6,36-44,15.4c-7.4-12.4,3.5-19.3,0.5-28.2s-57.8,1.5-64.8,5.4c0,0,13.3,40,11.4,54.4s-8.9,20.8-19.3,10.4
			s-23.7-1-24.2,16.3s2.5,31.1,14.3,27.2s21.3-18.3,25.2,0s-3,42-6.9,58.8c0,0,31.2,13.4,45.5,12.4s23.2-1.5,18.8-10.4
			s-11.9-14.8-6.4-24.7s27.2-8.9,38.6-6.4s16.3,10.9,12.9,20.3s-9.4,18.8,1.5,20.8c10.3,1.9,36.3-2.4,62-10.8
			C255.6,294,254,294.5,252.5,294.9z"/>
		<path class="st2" d="M261.8,291.9c-1.5,0.5-3,1-4.6,1.5C258.8,292.9,260.3,292.4,261.8,291.9z"/>
		<path class="st2" d="M442.3,185.6c-9.4,0-9.9,7.4-19.8,5.9s-10.9-24.2-0.5-64.3c0,0-11.4,8.4-37.1,8.9s-36.1-2.5-29.7-11.9
			s11.4-16.8,5.9-24.2s-31.6-6.4-40,0s-2.5,13.8,3.5,22.2s-1,13.3-10.9,13.8s-35.1,1-58.3-9.9c-1.2-0.6-2.3-1.1-3.5-1.6
			c-2.6,11.8-7.7,35.9-8.8,49c-1.5,17.8,4.4,22.3,11.9,17.3c7.4-4.9,17.8-18.3,25.7,2s1.5,33.1-7.9,39.1
			c-9.4,5.9-18.8-14.3-24.7-10.4c-5.4,3.6-7.1,46.8,4.5,73.2c3.1-1,6.2-2,9.3-3c27.2-9.4,54.4-13.9,59.3-7.4s3,5.4-3.5,15.3
			s-5.9,18.3,4.9,23.2s37.6,4,40-7.4s-11.4-17.8-4.9-28.7s63.3,4.9,63.3,4.9s-12.9-43.5-7.9-57.9s8.9-10.8,16.8-5.4
			s18.3,4.9,22.3-10.9S451.7,185.6,442.3,185.6z"/>
	</g>
	<g id="freepik--Target--inject-193">
		
			<ellipse transform="matrix(0.9043 -0.4269 0.4269 0.9043 13.7322 177.2026)" class="st3" cx="402.1" cy="58" rx="25.2" ry="25.2"/>
		<circle class="st4" cx="402.1" cy="58" r="20.7"/>
		<circle class="st3" cx="402.1" cy="58" r="15.1"/>
		<path class="st4" d="M411.6,58c0-5.3-4.3-9.5-9.5-9.5s-9.5,4.3-9.5,9.5s4.3,9.5,9.5,9.5l0,0C407.4,67.5,411.6,63.3,411.6,58
			C411.6,58,411.6,58,411.6,58z"/>
		<path class="st3" d="M406.5,58c0-2.4-2-4.4-4.4-4.4c-2.4,0-4.4,2-4.4,4.4c0,2.4,2,4.4,4.4,4.4c0,0,0,0,0,0
			C404.5,62.4,406.5,60.4,406.5,58z"/>
		<polygon class="st5" points="403.9,51.1 402.1,58 408.6,59.4 		"/>
		<line class="st6" x1="406.7" y1="54.9" x2="435.4" y2="39.3"/>
		<polygon class="st5" points="426.2,44.5 426.6,37 440.1,29.3 440.1,37.8 		"/>
		<polygon class="st5" points="445.9,41.9 440,37.5 426.1,44.8 432.8,48.7 		"/>
	</g>
	<g id="freepik--Chart--inject-193">
		<rect x="260" y="59.5" class="st3" width="10" height="23.9"/>
		<rect x="274.8" y="52.3" class="st3" width="10" height="31.1"/>
		<rect x="289.5" y="59.5" class="st3" width="10" height="23.9"/>
		<rect x="304.3" y="50.7" class="st3" width="10" height="32.7"/>
		<rect x="319.1" y="38.8" class="st3" width="10" height="44.6"/>
		<polygon class="st7" points="315.8,19.9 319.7,21.5 293.1,47.1 280.4,40.1 260.3,52.4 260.3,56.1 280.5,43.8 293.6,50.9 
			321.9,23.8 323.4,27.8 329,14.8 		"/>
	</g>
	<g id="freepik--Money--inject-193">
		<circle class="st4" cx="193.4" cy="57.9" r="25.2"/>
		
			<ellipse transform="matrix(0.9749 -0.2226 0.2226 0.9749 -8.0269 44.4901)" class="st3" cx="193.4" cy="57.9" rx="22.4" ry="22.4"/>
		<circle class="st4" cx="193.4" cy="58" r="20.2"/>
		<path class="st8" d="M193.1,75.3v-3.2c-2,0.1-4-0.8-5.3-2.3c-1.2-1.4-1.8-3.6-1.9-6.4l4.9-0.8c0,1,0.1,1.9,0.4,2.9
			c0.1,0.7,0.4,1.3,0.9,1.8c0.4,0.4,1,0.6,1.5,0.6c0.6,0.1,1.1-0.2,1.5-0.7c0.3-0.5,0.4-1,0.4-1.6c0-1.1-0.2-2.1-0.8-3
			c-0.6-0.9-1.4-1.7-2.2-2.4l-2.9-2.5c-0.6-0.6-1.2-1.2-1.8-1.9c-0.5-0.7-1-1.4-1.3-2.2c-0.3-0.9-0.5-1.9-0.5-2.9
			c-0.1-1.8,0.6-3.7,1.9-5c1.4-1.2,3.1-2,4.9-2v-3.2h1.7v3.1c1.1,0,2.1,0.3,3.1,0.8c0.7,0.5,1.4,1.1,1.8,1.9
			c0.4,0.8,0.7,1.6,0.9,2.4c0.2,0.9,0.3,1.7,0.3,2.6l-4.9,0.7c0-0.8-0.1-1.5-0.2-2.3c-0.1-0.6-0.3-1.1-0.6-1.5
			c-0.3-0.4-0.9-0.6-1.4-0.5c-0.6,0-1.1,0.3-1.5,0.8c-0.3,0.5-0.5,1-0.5,1.6c0,0.9,0.2,1.8,0.8,2.6c0.5,0.7,1.1,1.3,1.7,1.9l2.9,2.5
			c0.8,0.7,1.5,1.4,2.1,2.2c0.6,0.8,1.2,1.7,1.6,2.7c0.4,1.1,0.6,2.2,0.6,3.4c0,1.2-0.2,2.3-0.8,3.3c-0.5,1-1.2,1.8-2.2,2.4
			c-1,0.6-2.1,1-3.3,1.1v3.2H193.1z"/>
	</g>
	<g id="freepik--Calendar--inject-193">
		<rect x="64.9" y="38.3" class="st4" width="46.8" height="44"/>
		<rect x="64.9" y="38.3" class="st9" width="46.8" height="11.3"/>
		<rect x="68.7" y="55.9" class="st9" width="5.6" height="5.6"/>
		<rect x="77.1" y="55.9" class="st9" width="5.6" height="5.6"/>
		<rect x="85.5" y="55.9" class="st9" width="5.6" height="5.6"/>
		<rect x="93.9" y="55.9" class="st9" width="5.6" height="5.6"/>
		<rect x="102.3" y="55.9" class="st9" width="5.6" height="5.6"/>
		<rect x="68.7" y="64.7" class="st9" width="5.6" height="5.6"/>
		<rect x="77.1" y="64.7" class="st9" width="5.6" height="5.6"/>
		<rect x="85.5" y="64.7" class="st9" width="5.6" height="5.6"/>
		<rect x="93.9" y="64.7" class="st9" width="5.6" height="5.6"/>
		<rect x="102.3" y="64.7" class="st9" width="5.6" height="5.6"/>
		<rect x="68.7" y="73.5" class="st9" width="5.6" height="5.6"/>
		<rect x="77.1" y="73.5" class="st9" width="5.6" height="5.6"/>
		<rect x="85.5" y="73.5" class="st9" width="5.6" height="5.6"/>
		<rect x="93.9" y="73.5" class="st9" width="5.6" height="5.6"/>
		<rect x="102.3" y="73.5" class="st9" width="5.6" height="5.6"/>
		<rect x="71.3" y="31.1" class="st8" width="4" height="10.8"/>
		<rect x="81.3" y="31.1" class="st8" width="4" height="10.8"/>
		<rect x="91.3" y="31.1" class="st8" width="4" height="10.8"/>
		<rect x="101.3" y="31.1" class="st8" width="4" height="10.8"/>
	</g>
	<g id="freepik--Plants--inject-193">
		<path class="st0" d="M24.2,366.9c2.2,1,7.5,0.8,7.5,0.8s-1.1-3.5-1.2-3.7c-1.2-2.4-4.9-6.5-7.9-6.1c-2,0.3-3.3,2.2-3,4.1
			c0,0.1,0,0.3,0.1,0.4C20.2,364.6,22.4,366.1,24.2,366.9z"/>
		<path class="st0" d="M26.1,382.3c2.3,0.3,7-1,7.4-1.2c0.8,2.7,1.7,5.4,2.9,8c0.7,1.5,1.4,3,2.1,4.5c-0.4-0.6-0.8-1.2-0.9-1.3
			c-1.8-2-6.4-5-9.2-3.8c-1.8,0.8-2.6,2.9-1.8,4.7c0.1,0.1,0.1,0.2,0.2,0.4c1,1.9,3.5,2.8,5.5,3.1c2,0.3,6.1-0.8,7.2-1.1
			c0.3,0.6,0.6,1.1,0.8,1.7c1.4,2.7,2.8,5.5,4,8.2c0.5,1,0.9,1.9,1.3,2.9c-0.4-0.6-0.7-1-0.8-1.1c-1.8-2-6.4-5-9.2-3.8
			c-1.8,0.8-2.6,3-1.7,4.8c0.1,0.1,0.1,0.2,0.2,0.3c1,1.9,3.5,2.8,5.5,3.1s5.7-0.7,7-1c0.4,1,0.8,2,1.1,3c0.2,0.7,0.5,1.3,0.6,2
			s0.4,1.3,0.6,2c0.3,1.3,0.6,2.6,0.9,3.9c0.2,0.9,0.4,1.7,0.5,2.6c-0.4-1-1.3-2.8-1.4-3c-1.4-2.3-5.6-5.9-8.5-5.1
			c-1.9,0.6-3,2.5-2.4,4.5c0,0.1,0.1,0.2,0.1,0.3c0.7,2,3,3.3,5,3.9c2.1,0.6,6.8,0,7.4,0c0.3,1.4,0.5,2.8,0.8,4.1
			c0.5,2.9,0.9,5.4,1.2,7.6h2c-0.3-2.3-0.8-4.9-1.4-7.9c-0.3-1.4-0.6-3-1-4.5c1.4-0.6,2.8-1.2,4.1-2c1.5,1.7,5.5,3.6,6,3.9
			c-0.5,1.3-1.1,2.6-1.6,3.8c-1.1,2.5-2.1,4.8-3.1,6.7h2.2c0.8-1.8,1.7-3.8,2.6-6c0.6-1.4,1.1-2.8,1.7-4.3c0.6,0.1,5.2,1.1,7.4,0.6
			c2-0.4,4.3-1.5,5.2-3.5c0.9-1.8,0.1-3.9-1.6-4.8c-0.1-0.1-0.2-0.1-0.4-0.1c-2.9-1-7.2,2.3-8.8,4.5c-0.1,0.1-1,1.6-1.5,2.6
			c0.2-0.6,0.5-1.2,0.7-1.8c0.5-1.3,0.9-2.5,1.3-3.9l0.6-2c0.2-0.7,0.3-1.4,0.5-2.1c0.4-1.6,0.7-3.3,1-5c1.1,0.4,5,1.8,7,1.6
			s4.5-0.9,5.7-2.7c1.1-1.6,0.8-3.8-0.9-5c-0.1-0.1-0.2-0.1-0.3-0.2c-2.7-1.4-7.5,1.2-9.4,3.1c-0.1,0.1-1.3,1.6-2,2.5
			c0.2-1,0.3-2,0.5-3.1c0.4-3,0.7-6,1-9.1c0.1-0.9,0.2-1.9,0.3-2.8c0.4,0.1,5,1.9,7.3,1.7c2-0.1,4.5-0.9,5.7-2.7
			c1.1-1.6,0.7-3.9-0.9-5c-0.1-0.1-0.2-0.1-0.3-0.2c-2.7-1.4-7.5,1.2-9.4,3.1c-0.1,0.1-1.9,2.3-2.3,2.9c0.2-2,0.4-4.1,0.8-6.1
			c0.4-2.7,1-5.4,1.7-8c0.2,0.1,5,1.9,7.3,1.7c2-0.1,4.5-0.9,5.7-2.7c1.1-1.6,0.7-3.9-0.9-5c-0.1-0.1-0.2-0.1-0.3-0.2
			c-2.7-1.4-7.5,1.2-9.4,3.1c-0.2,0.1-2,2.5-2.3,3c0-0.1,0.1-0.3,0.1-0.5c0.8-2.6,1.9-5.1,3.2-7.6c0.7-1.4,1.4-2.6,2.2-3.8
			c0.9,0.4,4.8,2.3,6.9,2.4s4.6-0.4,6-2c1.3-1.5,1.2-3.7-0.3-5c-0.1-0.1-0.2-0.2-0.3-0.3c-2.5-1.7-7.6,0.3-9.7,2
			c-0.1,0.1-1.2,1.1-1.9,1.9c0.3-0.5,0.7-1.1,1-1.6c1.3-1.9,2.5-3.6,3.7-5c0.7-0.8,1.3-1.6,1.8-2.3c1.1,0,5.3-0.1,7.2-1
			s3.9-2.5,4.4-4.5c0.5-1.9-0.7-3.9-2.6-4.3c-0.1,0-0.3-0.1-0.4-0.1c-3-0.3-6.6,3.8-7.7,6.3c-0.1,0.2-1.2,3.7-1.1,3.7h0
			c-0.6,0.6-1.2,1.4-1.8,2.1c-1.2,1.4-2.5,3.1-3.8,5c-1.5,2-2.8,4.1-4,6.3c-1.3,2.4-2.5,5-3.4,7.6v0.1c0-0.9,0-3.4,0-3.6
			c-0.3-2.7-2.6-7.6-5.6-8.2c-2-0.3-3.8,1-4.1,3c0,0.1,0,0.3,0,0.4c-0.2,2.1,1.4,4.3,2.9,5.6c1.7,1.5,6.4,3,6.8,3.1
			c-0.8,2.7-1.5,5.4-2,8.2c-0.3,1.6-0.5,3.3-0.8,4.9c0-0.8,0-1.5,0-1.5c-0.3-2.7-2.6-7.6-5.6-8.2c-2-0.3-3.8,1-4.1,3
			c0,0.1,0,0.3,0,0.4c-0.2,2.1,1.4,4.3,2.9,5.6s5.5,2.7,6.6,3l-0.2,1.9c-0.4,3-0.7,6.1-1.1,9c-0.2,1-0.3,2.1-0.5,3.1
			c0-0.7,0-1.3,0-1.3c-0.3-2.7-2.6-7.7-5.6-8.2c-2-0.3-3.8,1-4.1,3c0,0.1,0,0.2,0,0.4c-0.2,2.1,1.4,4.3,2.9,5.6s5.1,2.6,6.4,3
			c-0.2,1-0.4,2.1-0.7,3.1c-0.2,0.7-0.3,1.3-0.6,2c-0.2,0.7-0.4,1.3-0.6,2c-0.5,1.3-0.9,2.5-1.4,3.8l-1,2.4c0.2-1,0.4-3.1,0.4-3.3
			c0-2.4-0.7-4.7-1.9-6.8c0-0.3,0-0.5,0-0.8c-0.3-2-2.1-3.3-4-3.1c-0.1,0-0.2,0-0.3,0.1c-2.9,0.8-4.8,5.9-4.9,8.6
			c0,0.2,0.1,1.9,0.2,3c-0.1-0.6-0.3-1.3-0.4-1.9c-0.3-1.3-0.7-2.6-1-4c-0.2-0.7-0.4-1.3-0.6-2s-0.5-1.4-0.7-2
			c-0.6-1.6-1.2-3.1-1.9-4.7c1.1-0.3,5.1-1.3,6.7-2.5s3.3-3.2,3.3-5.4c0.1-2-1.5-3.6-3.5-3.7c-0.1,0-0.2,0-0.4,0
			c-3,0.3-5.6,5.1-6.2,7.8c0,0.2-0.2,2.1-0.3,3.2c-0.4-0.9-0.9-1.9-1.3-2.8c-1.3-2.7-2.8-5.4-4.2-8.1l-1.3-2.5
			c0.4-0.1,5.2-1.2,7-2.6c1.6-1.2,3.3-3.2,3.3-5.4c0.1-2-1.5-3.6-3.5-3.7c-0.1,0-0.2,0-0.4,0c-3,0.3-5.6,5.1-6.2,7.8
			c0,0.2-0.3,3-0.3,3.7c-1-1.8-1.9-3.6-2.7-5.5c-1.2-2.5-2.2-5-3-7.6c0.2,0,5.2-1.2,7-2.6c1.6-1.2,3.3-3.2,3.3-5.4
			c0.1-2-1.5-3.6-3.5-3.7c-0.1,0-0.3,0-0.4,0c-3,0.3-5.6,5.1-6.2,7.8c0,0.2-0.3,3.2-0.3,3.8l-0.2-0.5c-0.7-2.6-1.3-5.3-1.5-8
			c-0.2-1.5-0.2-3-0.3-4.4c1-0.1,5.3-0.7,7.1-1.8s3.6-2.9,3.8-5c0.3-2-1.1-3.8-3.1-4c-0.1,0-0.3,0-0.4,0c-3,0-6.1,4.5-7,7
			c0,0.1-0.3,1.6-0.5,2.7c0-0.6,0-1.3,0-1.9c0-2.3,0.2-4.4,0.3-6.2c0.1-1,0.2-2,0.3-2.9c0.9-0.6,4.4-3.1,5.5-4.8s1.9-4.2,1.1-6.2
			c-0.7-1.9-2.7-2.8-4.6-2.1c-0.1,0-0.2,0.1-0.4,0.1c-2.7,1.4-3.4,6.8-3,9.5c0,0.2,1.1,3.8,1.1,3.7h0.1c-0.1,0.9-0.2,1.8-0.3,2.8
			c-0.2,1.9-0.4,4-0.4,6.3c-0.1,2.5,0,5,0.2,7.4c0.2,2.8,0.7,5.5,1.4,8.2v0.1c-0.5-0.8-1.9-2.8-2-2.9c-1.8-2-6.4-5-9.2-3.8
			c-1.8,0.9-2.5,3-1.6,4.8c0,0,0,0.1,0,0.1C21.6,381.1,24.1,382,26.1,382.3z"/>
		<path class="st0" d="M77.9,368.1c0,0,1-3.5,1-3.8c0.4-2.7-0.5-8.1-3.2-9.4c-1.8-0.8-3.9,0-4.7,1.8c-0.1,0.1-0.1,0.2-0.1,0.4
			c-0.7,2,0.2,4.5,1.3,6.2C73.4,365.3,77.9,368.1,77.9,368.1z"/>
		<path class="st0" d="M393.3,366.9c2.2,1,7.5,0.8,7.5,0.8s-1.1-3.5-1.2-3.7c-1.2-2.4-4.9-6.5-7.9-6.1c-2,0.3-3.3,2.2-3,4.1
			c0,0.1,0,0.3,0.1,0.4C389.4,364.6,391.5,366.1,393.3,366.9z"/>
		<path class="st0" d="M395.2,382.3c2.3,0.3,7-1,7.4-1.2c0.8,2.7,1.7,5.4,2.9,8c0.6,1.5,1.4,3,2.1,4.5c-0.4-0.6-0.8-1.2-0.9-1.3
			c-1.8-2-6.4-5-9.2-3.8c-1.8,0.8-2.6,2.9-1.8,4.7c0.1,0.1,0.1,0.2,0.2,0.4c1,1.9,3.5,2.8,5.5,3.1s6.1-0.8,7.2-1.1
			c0.3,0.6,0.6,1.1,0.9,1.7c1.4,2.7,2.8,5.5,4,8.2c0.5,1,0.9,1.9,1.3,2.9c-0.4-0.6-0.7-1-0.8-1.1c-1.8-2-6.4-5-9.2-3.8
			c-1.8,0.8-2.6,3-1.8,4.8c0.1,0.1,0.1,0.2,0.2,0.3c1,1.9,3.5,2.8,5.5,3.1s5.7-0.7,7-1c0.4,1,0.8,2,1.1,3c0.2,0.7,0.5,1.3,0.6,2
			s0.4,1.3,0.6,2c0.3,1.3,0.6,2.6,0.9,3.9c0.2,0.9,0.4,1.7,0.5,2.6c-0.4-1-1.3-2.8-1.4-3c-1.4-2.3-5.6-5.9-8.5-5.1
			c-1.9,0.5-3,2.5-2.5,4.4c0,0.1,0.1,0.2,0.1,0.3c0.7,2,3,3.3,5,3.9c2.1,0.6,6.8,0,7.4,0c0.3,1.4,0.5,2.8,0.8,4.1
			c0.5,2.9,0.9,5.4,1.2,7.6h2c-0.4-2.3-0.8-4.9-1.4-7.9c-0.3-1.4-0.6-3-1-4.5c1.4-0.6,2.8-1.2,4.1-2c1.5,1.7,5.5,3.6,6,3.9
			c-0.5,1.3-1.1,2.6-1.6,3.8c-1.1,2.5-2.1,4.8-3.1,6.7h2.1c0.8-1.8,1.7-3.8,2.6-6c0.6-1.4,1.1-2.8,1.7-4.3c0.6,0.1,5.2,1.1,7.4,0.6
			c2-0.4,4.4-1.5,5.2-3.5c0.9-1.8,0.1-3.9-1.6-4.8c-0.1-0.1-0.2-0.1-0.4-0.1c-2.9-1-7.2,2.3-8.9,4.5c-0.1,0.1-1,1.6-1.5,2.6
			c0.2-0.6,0.5-1.2,0.7-1.8c0.5-1.3,0.9-2.5,1.3-3.9l0.6-2c0.2-0.7,0.4-1.4,0.5-2.1c0.4-1.6,0.7-3.3,1-5c1.1,0.4,5,1.8,7,1.6
			s4.5-0.9,5.7-2.7c1.1-1.6,0.8-3.8-0.9-5c-0.1-0.1-0.2-0.1-0.3-0.2c-2.7-1.4-7.5,1.2-9.4,3.1c-0.1,0.1-1.3,1.6-2,2.5
			c0.2-1,0.3-2,0.5-3.1c0.4-3,0.6-6,1-9.1c0.1-0.9,0.2-1.9,0.3-2.8c0.4,0.1,5,1.9,7.3,1.7c2-0.1,4.5-0.9,5.7-2.7
			c1.1-1.6,0.7-3.9-0.9-5c-0.1-0.1-0.2-0.1-0.3-0.2c-2.7-1.4-7.5,1.2-9.4,3.1c-0.1,0.1-1.9,2.3-2.3,2.9c0.2-2,0.5-4.1,0.8-6.1
			c0.4-2.7,1-5.4,1.7-8c0.2,0.1,5,1.9,7.3,1.7c2-0.1,4.5-0.9,5.7-2.7c1.1-1.6,0.7-3.9-0.9-5c-0.1-0.1-0.2-0.1-0.3-0.2
			c-2.7-1.4-7.5,1.2-9.4,3.1c-0.1,0.1-2,2.5-2.4,3c0-0.1,0.1-0.3,0.1-0.5c0.8-2.6,1.9-5.1,3.2-7.6c0.7-1.4,1.4-2.6,2.2-3.8
			c0.9,0.4,4.8,2.3,6.9,2.4s4.6-0.4,6-2c1.3-1.5,1.2-3.7-0.3-5c-0.1-0.1-0.2-0.2-0.3-0.3c-2.5-1.7-7.6,0.3-9.7,2
			c-0.1,0.1-1.2,1.1-1.9,1.9c0.3-0.5,0.7-1.1,1-1.6c1.3-1.9,2.5-3.6,3.7-5c0.7-0.8,1.3-1.6,1.9-2.3c1.1,0,5.3-0.1,7.2-1
			s3.9-2.5,4.4-4.5c0.5-1.9-0.7-3.9-2.6-4.3c-0.1,0-0.3-0.1-0.4-0.1c-3-0.3-6.6,3.8-7.7,6.3c-0.1,0.2-1.2,3.7-1.1,3.7h0.1
			c-0.6,0.6-1.2,1.4-1.8,2.1c-1.2,1.4-2.5,3.1-3.8,5c-1.4,2-2.8,4.1-4,6.3c-1.3,2.4-2.5,5-3.4,7.6c0,0,0,0.1,0,0.1
			c0-0.9,0-3.4,0-3.6c-0.4-2.7-2.6-7.6-5.6-8.2c-2-0.3-3.8,1-4.1,3c0,0.1,0,0.3,0,0.4c-0.2,2.1,1.4,4.3,2.9,5.6
			c1.7,1.5,6.4,3,6.8,3.1c-0.8,2.7-1.5,5.4-2,8.2c-0.3,1.6-0.5,3.3-0.8,4.9c0-0.8,0-1.5,0-1.5c-0.4-2.7-2.6-7.6-5.6-8.2
			c-2-0.3-3.8,1-4.1,3c0,0.1,0,0.3,0,0.4c-0.2,2.1,1.4,4.3,2.9,5.6s5.5,2.7,6.6,3c-0.1,0.6-0.2,1.3-0.2,1.9c-0.4,3-0.7,6.1-1.1,9
			c-0.1,1-0.3,2.1-0.5,3.1c0-0.7,0-1.3,0-1.3c-0.4-2.7-2.6-7.7-5.6-8.2c-2-0.3-3.8,1-4.1,3c0,0.1,0,0.2,0,0.4
			c-0.2,2.1,1.4,4.3,2.9,5.6s5.1,2.6,6.4,3c-0.2,1-0.4,2.1-0.7,3.1c-0.2,0.7-0.3,1.3-0.6,2s-0.4,1.3-0.6,2c-0.5,1.3-0.9,2.5-1.4,3.8
			l-1,2.4c0.2-1,0.4-3.1,0.4-3.3c0-2.4-0.7-4.7-1.9-6.8c0-0.3,0-0.5,0-0.8c-0.3-2-2.1-3.3-4-3.1c-0.1,0-0.2,0-0.3,0.1
			c-2.9,0.8-4.8,5.9-4.9,8.6c0,0.2,0.1,1.9,0.2,3c-0.1-0.6-0.3-1.3-0.4-1.9c-0.3-1.3-0.6-2.6-1-4c-0.2-0.7-0.4-1.3-0.6-2
			s-0.5-1.4-0.7-2c-0.6-1.6-1.2-3.1-1.9-4.7c1.1-0.3,5.1-1.3,6.7-2.5s3.3-3.2,3.3-5.4c0.1-2-1.5-3.6-3.5-3.7c-0.1,0-0.2,0-0.4,0
			c-3,0.3-5.6,5.1-6.2,7.8c0,0.2-0.2,2.1-0.3,3.2c-0.4-0.9-0.9-1.9-1.3-2.8c-1.4-2.7-2.8-5.4-4.2-8.1l-1.3-2.5
			c0.4-0.1,5.2-1.2,7-2.6c1.6-1.2,3.3-3.2,3.3-5.4c0.1-2-1.5-3.6-3.5-3.7c-0.1,0-0.2,0-0.4,0c-3,0.3-5.6,5.1-6.2,7.8
			c0,0.2-0.3,3-0.3,3.7c-1-1.8-1.9-3.6-2.7-5.5c-1.2-2.5-2.1-5-3-7.6c0.2,0,5.2-1.2,7-2.6c1.6-1.2,3.3-3.2,3.3-5.4
			c0.1-2-1.5-3.6-3.5-3.7c-0.1,0-0.3,0-0.4,0c-3,0.3-5.6,5.1-6.2,7.8c0,0.2-0.3,3.2-0.3,3.8l-0.2-0.5c-0.7-2.6-1.3-5.3-1.5-8
			c-0.2-1.5-0.2-3-0.3-4.4c1-0.1,5.3-0.7,7.1-1.8s3.6-2.9,3.9-5c0.3-2-1.1-3.8-3.1-4c-0.1,0-0.3,0-0.4,0c-3,0-6.1,4.5-7,7
			c0,0.1-0.4,1.6-0.5,2.7c0-0.6,0-1.3,0-1.9c0-2.3,0.1-4.4,0.3-6.2c0.1-1,0.2-2,0.3-2.9c0.9-0.6,4.4-3.1,5.5-4.8s1.9-4.2,1.1-6.2
			c-0.7-1.9-2.7-2.8-4.6-2.1c-0.1,0-0.2,0.1-0.4,0.1c-2.7,1.4-3.4,6.8-3,9.5c0,0.2,1,3.8,1.1,3.7h0c-0.1,0.9-0.2,1.8-0.3,2.8
			c-0.2,1.9-0.4,4-0.4,6.3c-0.1,2.5,0,5,0.2,7.4c0.2,2.8,0.7,5.5,1.4,8.2v0.1c-0.5-0.8-1.9-2.8-2-2.9c-1.8-2-6.4-5-9.2-3.8
			c-1.8,0.8-2.6,2.9-1.8,4.7c0.1,0.1,0.1,0.2,0.2,0.3C390.7,381.1,393.2,382,395.2,382.3z"/>
		<path class="st0" d="M447,368.1c0,0,1-3.5,1-3.8c0.4-2.7-0.5-8.1-3.2-9.4c-1.8-0.8-3.9,0-4.7,1.8c-0.1,0.1-0.1,0.2-0.1,0.4
			c-0.7,2,0.2,4.5,1.3,6.2C442.5,365.3,447,368.1,447,368.1z"/>
	</g>
	<g id="freepik--Characters--inject-193">
		<path class="st7" d="M351.3,158.8c0,0,0.3-11.3,6.8-14.5s6.9,7.4,6.9,7.4s14.9-9.5,18.1-2.3s-1.3,10.6-1.3,10.6s13.2-0.5,14.1,6.8
			s-5.9,10.8-5.9,10.8s8.2,6.7,5.3,9.8s-9.1,3.3-9.1,3.3s3.6,7.1-2.6,9.7s-13.3-2.2-13.3-2.2s1.1,3.3-3.6,2.4s-9.4-3-12.3-9.8
			S347.8,164.6,351.3,158.8z"/>
		<path class="st10" d="M282.6,376.8c0,0-3.7,14.2-3.6,15.7s-1.2,5.1-0.1,6.1c2,1.7,4.2,3.2,6.5,4.5c0.9,0,1.8-0.3,2.6-0.8
			c0.5-0.5,0.8-1.1,0.8-1.8c0-0.5-1.5-2.8-1.7-3.3s2.7-7.3,3.8-10.7c0.8-3,1.4-6.1,1.8-9.2L282.6,376.8z"/>
		<path class="st10" d="M286.6,386.7c0,0-2.1,5-2.3,5.9s-3,3.3-2.6,5.2s4.6,1.4,6.7-4.3"/>
		<path class="st3" d="M296.1,299.9c0,0-1.8,28.9-2.4,31.4s-8.7,25.8-10.5,33c-1.1,4.4-1.9,8.9-2.3,13.5l10.8,2.3l6.1-26.6
			c0,0,7.9-24.3,6.3-35.6C303.2,311.2,300.4,305,296.1,299.9z"/>
		<path class="st3" d="M352.3,436.4c0.1-6.3,0.4-14.8,1-19.6c1-8.4,4.6-13.6,8.3-24s4-24.2,4-24.2l-65.9,2.3c0,0-7.6,28.3-12.3,49.2
			c-1.3,5.3-2,10.8-2.2,16.3"/>
		<polygon class="st7" points="308.3,381.5 363.1,383.1 364.3,378.8 		"/>
		<path class="st4" d="M305.5,435.4c0,0-1.1-34.3-1.1-52.9"/>
		<path class="st3" d="M347.5,227.4l8,5.4c0,0,9.5,8.5,11.8,15.5s0.6,48.6-1.7,62s3.5,30.2,5.6,39.6s3,27,3,27s1.5,2.1-24.2,3
			s-43.6,2.2-45.7,2.6c-1.3,0.3-2.6,0.4-3.9,0.5l-1-9.1l-2.5,7.5l-5.3-1.2c0,0,3.3-16.3,4.1-22.7s6.1-28,6.1-36.1
			s-6.7-21.2-8.1-29.3s1.4-21.9,8-32.3c6.6-10.4,11.1-14.5,24.1-25.1S347.5,227.4,347.5,227.4z"/>
		<polyline class="st2" points="326.7,349.2 353.5,352.3 352,345.3 335.3,343.8 		"/>
		<polyline class="st2" points="317.3,343.4 315.9,348 322.7,348.8 		"/>
		<path class="st2" d="M327.4,297.5c-1.3-1.2-2.4-2.4-3.5-3.8"/>
		<path class="st2" d="M336.7,305.3c0,0-2.8-2.1-5.9-4.8"/>
		<path class="st3" d="M347.5,227.4c0,0-8.5-3.6-21.5,7.1c-13,10.7-17.5,14.7-24.1,25.1c-4,6.4-6.6,13.6-7.8,21.1
			c0.2,0.8,0.3,1.6,0.5,2.4c3.7,15.7,7.9,23.3,7.9,23.3s7.2-35.8,19.7-50.3c12.5-14.5,33.3-23.4,33.3-23.4L347.5,227.4z"/>
		<path class="st10" d="M316.3,157.5c0,0-9.4,8.8-10.1,15.7s-1.4,12.9-2.6,15.1s-7.1,3.7-5.1,7.1s3.9,3.3,3.9,3.3s3,14.9,5.3,17
			s10.4,0.9,10.4,0.9l2.5,18.1c0,0-16.8,14.9-20.1,35.6s0.5,32.6,0.5,32.6s2.2-32.7,9.8-44.9c7.6-12.2,25.1-23.8,27.7-25.9
			s9.2-4.6,9.2-4.6s-3.1-7-3.5-10.2s-0.3-7.8,0.3-9.1s11.1-5.1,15-17.1s-1.9-26.2-8-32.3S324.1,149.7,316.3,157.5z"/>
		<path class="st7" d="M359.3,191c4-12-1.9-26.2-8-32.3s-27.2-9.1-35.1-1.3c0,0-0.5,0.5-1.3,1.3c3-0.7,6.1-0.8,9.1-0.3
			c6.3,1,6.1,6,4.4,10.8s-0.4,5.6,2.8,8s-0.1,6.9,2.2,8.7s4.1-8,9-0.9s1.6,10.3-1.5,12.2c-1.7,1.1-3.6,2.1-5.5,2.7
			c0,0,4.6,5.4,9.2,7.7C346.9,206,355.8,201.8,359.3,191z"/>
		<path class="st2" d="M307.5,201.3c0,0,6.5-0.5,9.6-3.5"/>
		<path class="st8" d="M311.6,185.8c0,1.6-0.5,2.8-1.3,2.9s-1.5-1.2-1.5-2.8s0.5-2.8,1.3-2.9S311.6,184.3,311.6,185.8z"/>
		<path class="st2" d="M308.8,179.5c0,0,2.1-2.8,5.1,0.5"/>
		<polygon class="st5" points="318,216.6 325.8,213.6 320.4,223.4 		"/>
		<polygon class="st4" points="295.5,360.1 285.3,403.2 294.5,405.4 299.5,373.8 		"/>
		<path class="st4" d="M304.6,256.8c-2,4.3-3.4,8.8-4.1,13.5c-3.3,20.7,0.5,32.6,0.5,32.6s2.2-32.3,9.6-44.7
			C308.5,258,306.5,257.5,304.6,256.8z"/>
		<path class="st3" d="M336.2,270.3l-0.7,36.6l-64,10.6l1.4,17.3c0,0,35.5,0.7,52.1-0.7s31-2.5,33.1-4.2s8.1-35.8,10.6-59.7
			s-2.5-32-12.3-30.6"/>
		<path class="st4" d="M233.1,315.9l-5.1,15.6l5,2.7c0,0,6.4,4.9,9.8,7.6s6.1,2.7,8,1.8s10.2-12.7,11.3-15s-3.9-9-8.8-11.9
			c-4.9-2.9-9-2.9-11.9-2C238.7,315.4,235.9,315.7,233.1,315.9z"/>
		<path class="st10" d="M271.4,317.5l-8.1-0.7c-2.5-0.7-5.1-1.1-7.7-1.4c-2.1,0-4.9,2.1-6.3,3.2s-16.9,18-16.9,18s1.4,2.8,3.5,2.1
			s6-2.5,6-2.5s-4.2,4.2-2.1,6.3s5.6,2.1,5.6,2.1l2.5-1.4c1,0.8,2.2,1.4,3.5,1.8c1.8,0.4,4.6-0.4,7-1.8c2.4-1.4,8.7-8.8,8.7-8.8
			l5.4-2.1L271.4,317.5z"/>
		<path class="st4" d="M235.9,316.6c0,0,10.2-5.9,14.7-4.3s10.4,11.7,8.8,13.1s-4.3,0.8-5.7-0.6c-1.2-1.1-2.5-2-3.9-2.9
			c-2.7,1.5-5.7,2.4-8.8,2.5"/>
		<path class="st4" d="M266.5,339.8l-3.3-1.7c-1.1-0.6-1.5-1.9-0.9-3c0,0,0,0,0,0l0,0c0.6-1.1,1.9-1.5,3-0.9c0,0,0,0,0,0l3.3,1.7
			c1.1,0.6,1.5,2,0.9,3l0,0C268.9,340,267.6,340.4,266.5,339.8z"/>
		<path class="st4" d="M263.6,343.3l-3.3-1.7c-1.1-0.6-1.5-1.9-0.9-3l0,0c0.6-1.1,1.9-1.5,3-0.9l3.3,1.7c1.1,0.6,1.5,1.9,0.9,3l0,0
			C266,343.4,264.7,343.9,263.6,343.3z"/>
		<path class="st4" d="M260.3,346.4l-3.3-1.7c-1.1-0.6-1.5-1.9-0.9-3c0,0,0,0,0,0l0,0c0.6-1.1,1.9-1.5,3-0.9c0,0,0,0,0,0l3.3,1.7
			c1.1,0.6,1.5,1.9,0.9,3c0,0,0,0,0,0l0,0C262.8,346.6,261.4,347,260.3,346.4C260.3,346.4,260.3,346.4,260.3,346.4z"/>
		<path class="st4" d="M253.4,346.5l-0.9-0.5c-1.1-0.6-1.5-1.9-0.9-3c0,0,0,0,0,0l0,0c0.6-1.1,2-1.5,3.1-0.9l0.9,0.5
			c1.1,0.6,1.5,1.9,0.9,3c0,0,0,0,0,0l0,0C255.9,346.7,254.5,347.1,253.4,346.5C253.4,346.5,253.4,346.5,253.4,346.5z"/>
		<polygon class="st7" points="233.1,315.9 190.1,297.7 191.7,326.2 227.2,334.3 		"/>
		<polygon class="st4" points="227.2,334.3 233.1,315.9 227.1,313.2 227,313.9 221.5,332.9 		"/>
		<path class="st11" d="M166,202l11,5.1c0,0,4.6,13.1,3.1,13.5s-13.1-8.9-13.1-8.9L166,202z"/>
		<path class="st11" d="M172.4,199.4l0.8-4.4c0,0,10.2,0.7,14.3,0.7s7.6-0.6,7.6-4.9s-2.4-19.1-2.4-19.1s4.6-1.1,6.4-3.1
			s-0.8-4.6-3.1-7.6s-4.4-6.3-4.6-9.9s-6.5-15.3-6.5-15.3s1-1.8-2.3-5.6c-3.3-3.8-20.4-4.5-31.3,1c-10.9,5.5-13.4,13.3-13.4,22
			s5,20.9,5,20.9s-3.2,13.3-3.5,14s-3.1,6.4-3.1,6.4s13.7,9.5,18.7,13.8s16.3,11.6,16.3,7.6s0.5-12.9,0.5-12.9L172.4,199.4z"/>
		<path class="st8" d="M187.5,158c0.1,1.5-0.3,2.7-0.8,2.7s-0.9-1.1-1-2.6s0.3-2.7,0.8-2.7S187.4,156.6,187.5,158z"/>
		<path class="st12" d="M180.3,153.2c0,0,2.3-3.8,8.1-1.6"/>
		<path class="st7" d="M195,190.8c0-4.3-2.4-19.1-2.4-19.1s-2.8-1.5-8.2-0.2s-6.8,10-7.8,11s-7.7-5-10.3-9.1s-4.4-11.1-4.7-15.2
			s9.4-6.2,10.9-10s-5.6-7.9-3.1-10.4s7.6-1.6,10.2-1.1c1.7,0.2,3.5,0,5.1-0.8c0,0,1-1.8-2.3-5.6c-3.3-3.8-20.4-4.5-31.3,1
			c-10.9,5.5-13.4,13.3-13.4,22c0.1,7,3.3,16.4,4.5,19.7c1,0.4,2.1,0.7,3.3,0.7c1-0.3,1.8-3.3,2.3-6.4s7.9-6.7,7.9-6.7
			s1.3,9.2,1.3,10.9s-1,10.7,3.9,15c3.9,3.2,8,6.1,12.3,8.6c0,0,10.2,0.7,14.3,0.7S195.1,195.1,195,190.8z"/>
		<path class="st11" d="M157.2,166.8c0,0-2.1-12.2-5.7-11.7s-5.6,5.1-3.8,11s5.4,5.3,7.4,4.8"/>
		<path class="st13" d="M182.2,176.1c0,0,2.1,2.5,7.4,2.5"/>
		<path class="st7" d="M125,436.4h54c0.2-2.8,2.3-13.8,2.3-20.9c0-8.3,5.7-61.6,5.7-61.6l-70.2-0.9l2.3,32.6L125,436.4z"/>
		<path class="st7" d="M132,196.4c0,0-12.3,15.8-15.8,24.6s-6.2,10.4-5.4,21.6s6.2,55.8,6.2,55.8l-10.8,58.1
			c12.7,4.6,26.1,6.9,39.6,6.9c22.3,0,32-1.9,33.5-2.7s15-4.2,15-4.2s0-65.8-4.2-88.5s-9.6-40-11.5-44.3s-8.1-18.1-8.1-18.1
			L132,196.4z"/>
		<path class="st7" d="M178.6,223.7c-1.9-4.2-8.1-18.1-8.1-18.1l-38.5-9.2c0,0-2.6,3.3-5.8,7.8c8.4,4.9,29.2,16.9,30.4,17.2
			c1.5,0.4,9.2-0.4,9.2-0.4l-3.4,4.2c0,0,9.2,7.3,12.3,10.4c1.6,1.6,6.3,5.9,10.4,9.6C182.4,234.2,179.8,226.3,178.6,223.7z"/>
		<polygon class="st11" points="160.9,214.1 174,224.5 184.8,243.7 177.8,215.6 163.6,207.5 		"/>
		<polygon class="st11" points="134.7,189 175,207.2 175,221.4 128.9,197.9 		"/>
		<rect x="118.4" y="334.7" class="st3" width="69.6" height="56.4"/>
		<path class="st11" d="M157.5,361.6c0,0,5.2,6.8,7.2,7.4c1.7,0.7,3.1,2,4,3.6c0.9,1.4,2,11.5,2.7,12.2s0.7,2.3-1.8,1.1s-4-5-4-5
			l0.9,9c0,0,2,0.5,0.4,1.6s-2.9,2.7-4.3,2c-1.2-0.7-2.3-1.5-3.4-2.5c-1.6,0.5-3.3,0.7-5,0.5c-2.5-0.5-2,0.5-4.3-1.1
			s-2.3,0.2-3.4-2.7c-1.7-5.2-3.2-10.6-4.3-16c-0.4-2.9-0.9-7-0.9-7L157.5,361.6z"/>
		<polygon class="st11" points="158.4,357.3 159.9,364.3 140.6,367 139.7,360 		"/>
		<path class="st7" d="M133.6,210.2c0,0-13.5,4.2-13.8,10.4s-4.8,80.9-2.9,85.9s20.9,55.7,20.9,55.7l21.9-2.7
			c0,0-11.2-58.8-11.6-59.9s7.5-66.6,7.5-66.6"/>
		<polyline class="st14" points="152.9,251.7 148,299.5 152.7,329.3 		"/>
		<line class="st14" x1="153.7" y1="244.4" x2="153.4" y2="246.9"/>
		<line class="st14" x1="118.2" y1="237" x2="116.7" y2="281.9"/>
		<polyline class="st14" points="168.5,321.4 183.3,320.9 184.6,326.2 160.1,327.8 		"/>
		<line class="st14" x1="156.2" y1="321.9" x2="164" y2="321.6"/>
		<polyline class="st14" points="129.5,205.4 156.7,221.4 165.9,221 162.4,225.2 180.3,239.5 		"/>
	</g>
	<g id="freepik--Table--inject-193">
		<line class="st2" x1="13.5" y1="436.4" x2="470" y2="436.4"/>
	</g>
	<g id="freepik--lines-1--inject-193">
		<line class="st2" x1="142.5" y1="24.2" x2="142.5" y2="91.8"/>
		<line class="st2" x1="246.3" y1="24.2" x2="246.3" y2="91.8"/>
		<line class="st2" x1="350.1" y1="24.2" x2="350.1" y2="91.8"/>
	</g>
</g>
</svg>
